# xmcd
# 
# Track frame offsets:
#     150
#     20771
#     42462
#     57183
#     77524
#     98351
#     112193
#     130394
#     152152
#     173347
#     191084
#     209553
#     231975
#     250578
# 
# Disc length: 3432
# 
# Revision: 22
# Processed by: cddbd v1.5.2PL0 Copyright (c) Steve Scherf et al.
# Submitted via: fre:ac v1.0.31
# 
DISCID=b90d660e
DTITLE=U2 - The Joshua Tree (Remastered) (Bonus Disc)
DYEAR=1987
DGENRE=Rock
TTITLE0=Luminous Times (Hold On To Love)
TTITLE1=Walk To The Water
TTITLE2=Spanish Eyes
TTITLE3=Deep In The Heart
TTITLE4=Silver And Gold
TTITLE5=Sweetest Thing
TTITLE6=Race Against Time
TTITLE7=Where The Streets Have No Name (Single Edit)
TTITLE8=Silver And Gold (Sun City)
TTITLE9=Beautiful Ghost/Introduction To Songs Of Experience
TTITLE10=Wave Of Sorrow (Birdland)
TTITLE11=Desert Of Our Love
TTITLE12=Rise Up
TTITLE13=Drunk Chicken/America
EXTD=
EXTT0=
EXTT1=
EXTT2=
EXTT3=
EXTT4=
EXTT5=
EXTT6=
EXTT7=
EXTT8=
EXTT9=
EXTT10=
EXTT11=
EXTT12=
EXTT13=
PLAYORDER=
